<svg width="825px" height="258px" viewBox="0 0 825 258" version="1.1" xmlns="http://www.w3.org/2000/svg" xmlns:xlink="http://www.w3.org/1999/xlink">
    <title>Group 5</title>
    <desc>Created with Sketch.</desc>
    <g id="Page-1" stroke="none" stroke-width="1" fill="none" fill-rule="evenodd">
        <g id="Cover-Copy-2" transform="translate(-407.000000, -189.000000)" fill="#FFFFFF">
            <g id="Group-5" transform="translate(407.000000, 189.000000)">
                <path d="M75,28.8 L68.4,28.8 C60.999963,28.8 55.9500135,29.5 53.25,30.9 C50.5499865,32.300007 49.2,35.599974 49.2,40.8 C49.2,42.7684309 49.3601108,45.3372449 49.6803324,48.5065053 L49.8683713,50.2697248 C50.2517177,53.6801065 50.934254,58.7734173 51.9159959,65.5497728 L52.2,67.5 C53.1375047,73.8750319 53.8992167,79.7665805 54.4851558,85.1748004 L54.7123834,87.332627 C55.2374636,92.4657363 55.5,96.1548275 55.5,98.4 C55.5,114.600081 47.000085,124.499982 30,128.1 C47.000085,132.300021 55.5,142.799916 55.5,159.6 L55.4962539,160.085121 C55.460042,162.529456 55.1612931,166.417715 54.6,171.75 C54.0374972,177.093777 53.2992228,182.920872 52.385157,189.23144 L51.5618679,194.912468 C50.711611,200.870839 50.1243259,205.349985 49.8,208.35 L49.6803324,209.493495 C49.3601108,212.662755 49.2,215.231569 49.2,217.2 C49.2,222.400026 50.5499865,225.699993 53.25,227.1 C55.9500135,228.5 60.999963,229.2 68.4,229.2 L75,229.2 L75,258 L59.7,258 C44.699925,258 34.20003,255.200028 28.2,249.6 C22.19997,243.999972 19.2,235.20006 19.2,223.2 C19.2,217.999974 19.499997,212.700027 20.1,207.3 L20.2437875,206.03254 C20.8402384,200.877497 21.6923022,194.700036 22.8,187.5 L23.0775521,185.808837 C23.930616,180.526737 24.5380934,175.940496 24.9,172.05 C25.300002,167.749978 25.5,163.900017 25.5,160.5 C25.5,158.49999 25.200003,156.550009 24.6,154.65 C23.999997,152.749991 22.800009,151 21,149.4 C19.199991,147.799992 16.700016,146.450006 13.5,145.35 C10.299984,144.249994 6.100026,143.600001 0.9,143.4 L0.9,114.6 C6.100026,114.199998 10.299984,113.5 13.5,112.5 C16.700016,111.5 19.199991,110.200008 21,108.6 C22.800009,107 23.999997,105.250009 24.6,103.35 C25.200003,101.449991 25.5,99.5 25.5,97.5 C25.5,94.099983 25.300002,90.2500215 24.9,85.95 L24.7775507,84.698295 C24.3639448,80.6613254 23.7047664,75.9285986 22.8,70.5 L22.3965961,67.8479194 C21.3962977,61.1928744 20.6307719,55.476947 20.1,50.7 C19.499997,45.299973 19.2,40.000026 19.2,34.8 C19.2,22.79994 22.19997,14.000028 28.2,8.4 C34.20003,2.799972 44.699925,0 59.7,0 L75,0 L75,28.8 Z M824.7,143.4 C819.499974,143.600001 815.300016,144.249994 812.1,145.35 C808.899984,146.450006 806.400009,147.799992 804.6,149.4 C802.799991,151 801.6,152.749991 801,154.65 C800.399997,156.550009 800.1,158.49999 800.1,160.5 C800.1,163.673349 800.27422,167.23865 800.622666,171.195996 L800.7,172.05 C801.1,176.350021 801.799995,181.49997 802.8,187.5 L803.203404,190.152081 C804.203702,196.807126 804.969228,202.523053 805.5,207.3 C806.1,212.700027 806.4,217.999974 806.4,223.2 C806.4,235.20006 803.40003,243.999972 797.4,249.6 C791.39997,255.200028 780.900075,258 765.9,258 L750.6,258 L750.6,229.2 L757.2,229.2 L758.319926,229.194477 C765.111801,229.126364 769.788449,228.428205 772.35,227.1 C775.050013,225.699993 776.4,222.400026 776.4,217.2 C776.4,214.999989 776.200002,212.050018 775.8,208.35 L775.656245,207.071107 C775.22235,203.33721 774.47027,197.81355 773.4,190.5 C772.462495,184.124968 771.700781,178.23342 771.114844,172.8252 L770.887617,170.667373 C770.380643,165.711267 770.118418,162.10131 770.100937,159.83741 L770.1,159.6 C770.1,143.399919 778.599915,133.500018 795.6,129.9 C778.769916,125.741979 770.270848,115.409452 770.10255,98.9021125 L770.1,98.4 C770.1,96.0774077 770.380955,92.2095993 770.942872,86.7964646 L771,86.25 C771.5625,80.9062233 772.300777,75.0791281 773.214843,68.76856 L774.03813,63.087532 C774.888385,57.1291606 775.475674,52.650015 775.8,49.65 L775.919668,48.5065053 C776.239891,45.3372449 776.4,42.7684309 776.4,40.8 C776.4,35.599974 775.050013,32.300007 772.35,30.9 C769.719218,29.5358974 764.857464,28.8363577 757.764598,28.8013807 L750.6,28.8 L750.6,0 L765.9,0 C780.900075,0 791.39997,2.799972 797.4,8.4 C803.40003,14.000028 806.4,22.79994 806.4,34.8 C806.4,40.000026 806.1,45.299973 805.5,50.7 L805.280325,52.6171657 C804.688312,57.6390664 803.861544,63.5999655 802.8,70.5 L802.522448,72.1911629 C801.714282,77.1952582 801.12653,81.5748146 800.759184,85.3299294 L800.7,85.95 C800.299998,90.2500215 800.1,94.099983 800.1,97.5 C800.1,99.5 800.399997,101.449991 801,103.35 C801.6,105.250009 802.799991,107 804.6,108.6 C806.400009,110.200008 808.899984,111.5 812.1,112.5 C815.300016,113.5 819.499974,114.199998 824.7,114.6 L824.7,143.4 Z" id="{}" fill-rule="nonzero" opacity="0.100000001"></path>
                <g id="Group-3" transform="translate(131.000000, 39.000000)">
                    <g id="Group-4" transform="translate(63.000000, 135.000000)">
                        <g id="Group-2">
                            <g id="ciklum-logo-new-(1)-copy" fill-rule="nonzero">
                                <g id="Group" transform="translate(83.000000, 23.000000)">
                                    <path d="M16,14.8 C15.7,14.8 15.4,14.9 15.2,15.1 C13.5,16.7 12,17.4 9.9,17.4 C6.1,17.4 3.1,14.2 3.1,10.1 C3.1,6 6,2.9 9.9,2.9 C11.9,2.9 13.5,3.6 15.1,5 C15.3,5.2 15.6,5.3 15.9,5.3 C16.5,5.3 17.1,4.8 17.1,4.2 C17.1,4 17,3.6 16.7,3.3 C15.2,2 13.3,0.8 10,0.8 C4.9,0.8 0.9,4.9 0.9,10.2 L0.9,10.3 C0.9,15.7 4.8,19.7 10,19.7 C12.7,19.7 14.8,18.9 16.9,16.9 C17.1,16.7 17.2,16.4 17.2,16.1 C17.1,15.3 16.6,14.8 16,14.8 Z" id="Path"></path>
                                    <path d="M25.6,0.8 C25,0.8 24.5,1.3 24.5,1.9 L24.5,18.1 C24.5,18.7 25,19.2 25.6,19.2 C26.2,19.2 26.7,18.7 26.7,18.1 L26.7,2 C26.7,1.4 26.2,0.8 25.6,0.8 Z" id="Path"></path>
                                    <path d="M43.1,9.1 L49.4,2.8 C49.7,2.5 49.7,2.2 49.7,2 C49.7,1.4 49.2,0.9 48.6,0.9 C48.3,0.9 48,1 47.8,1.3 L37.7,11.7 L37.7,2 C37.7,1.4 37.2,0.9 36.6,0.9 C36,0.9 35.5,1.4 35.5,2 L35.5,18.2 C35.5,18.8 36,19.3 36.6,19.3 C37.2,19.3 37.7,18.8 37.7,18.2 L37.7,14.5 L41.5,10.7 L48.1,18.9 C48.3,19.2 48.6,19.3 49,19.3 C49.6,19.3 50.2,18.8 50.2,18.1 C50.2,17.7 50,17.5 49.9,17.3 L43.1,9.1 Z" id="Path"></path>
                                    <path d="M69,17.1 L59.8,17.1 L59.8,2 C59.8,1.4 59.3,0.9 58.7,0.9 C58.1,0.9 57.6,1.4 57.6,2 L57.6,18.1 C57.6,18.7 58.1,19.2 58.7,19.2 L69,19.2 C69.6,19.2 70.1,18.7 70.1,18.1 C70.1,17.5 69.6,17.1 69,17.1 Z" id="Path"></path>
                                    <path d="M89.1,0.8 C88.5,0.8 88,1.3 88,1.9 L88,11.5 C88,15.2 86.1,17.3 82.7,17.3 C79.3,17.3 77.3,15.1 77.3,11.4 L77.3,2 C77.3,1.4 76.8,0.9 76.2,0.9 C75.6,0.9 75.1,1.4 75.1,2 L75.1,11.6 C75.1,16.5 78,19.6 82.7,19.6 C87.4,19.6 90.3,16.5 90.3,11.5 L90.3,2 C90.3,1.4 89.7,0.8 89.1,0.8 Z" id="Path"></path>
                                    <path d="M114.2,0.9 L114.1,0.9 C113.7,0.9 113.3,1.1 113,1.5 L106.7,10.8 L100.3,1.4 C100.2,1.3 99.9,0.8 99.3,0.8 L99.2,0.8 C98.6,0.8 98.1,1.3 98.1,1.9 L98.1,18.1 C98.1,18.7 98.6,19.2 99.2,19.2 C99.8,19.2 100.3,18.7 100.3,18.1 L100.3,5.3 L105.7,13.2 C105.9,13.6 106.3,13.7 106.7,13.7 C107,13.7 107.4,13.6 107.6,13.2 L113,5.3 L113,18.2 C113,18.8 113.5,19.3 114.1,19.3 C114.7,19.3 115.2,18.8 115.2,18.2 L115.2,2 C115.4,1.4 114.9,0.9 114.2,0.9 Z" id="Path"></path>
                                </g>
                                <g id="ciklum-logo-new-(1)">
                                    <g id="Group">
                                        <circle id="Oval" opacity="0.100000001" cx="32.4" cy="33.2" r="32.4"></circle>
                                        <g transform="translate(1.000000, 2.000000)" id="Path">
                                            <path d="M32.1,46 C24.1,46.6 17.1,40.4 16.5,32.3 C16,25.3 20.4,19.1 26.8,17.1 L25,11.1 C16,13.9 9.7,22.7 10.4,32.7 C11.2,44.2 21.2,53 32.6,52.2 C34.2,52.1 35.7,51.8 37.2,51.3 L35.4,45.3 C34.3,45.7 33.2,45.9 32.1,46"></path>
                                            <path d="M21.4,41 C26.7,46.4 35.4,46.4 40.7,41 L37.5,37.7 C33.9,41.3 28.2,41.2 24.7,37.7 C21.2,34.1 21.1,28.3 24.7,24.7 L21.5,21.4 C16.1,26.8 16.1,35.6 21.4,41"></path>
                                            <path d="M46.4,46.8 C38,55.4 24.3,55.4 15.8,46.8 C11.6,42.5 9.5,36.9 9.5,31.3 L9.5,31.3 C9.5,25.7 11.6,20.1 15.8,15.8 C24.2,7.2 37.9,7.2 46.4,15.8 L52.7,9.4 C40.6,-2.8 21.7,-3 9.5,9.4 C3.5,15.4 0.6,23.4 0.6,31.3 L0.6,31.3 C0.6,39.2 3.6,47.2 9.5,53.2 C21.4,65.3 40.8,65.3 52.7,53.2 L46.4,46.8 Z"></path>
                                        </g>
                                    </g>
                                </g>
                            </g>
                            <rect id="Rectangle" opacity="0.200000003" x="223" y="0" width="2" height="66" rx="1"></rect>
                            <path d="M257.27,42.208 C254.843321,42.208 252.954007,41.5146736 251.602,40.128 C250.249993,38.7413264 249.574,36.748013 249.574,34.148 L249.574,23.8 L252.174,23.8 L252.174,34.044 C252.174,37.9440195 253.881316,39.894 257.296,39.894 C258.960008,39.894 260.233996,39.4130048 261.118,38.451 C262.002004,37.4889952 262.444,36.0200099 262.444,34.044 L262.444,23.8 L264.966,23.8 L264.966,34.148 C264.966,36.7653464 264.290007,38.7629931 262.938,40.141 C261.585993,41.5190069 259.696679,42.208 257.27,42.208 Z M288.948,23.8 L288.948,42 L286.816,42 L275.896,28.428 L275.896,42 L273.296,42 L273.296,23.8 L275.428,23.8 L286.348,37.372 L286.348,23.8 L288.948,23.8 Z M297.408,23.8 L300.008,23.8 L300.008,42 L297.408,42 L297.408,23.8 Z M324.094,23.8 L316.112,42 L313.538,42 L305.53,23.8 L308.338,23.8 L314.89,38.75 L321.494,23.8 L324.094,23.8 Z M342.616,39.738 L342.616,42 L329.408,42 L329.408,23.8 L342.252,23.8 L342.252,26.062 L332.008,26.062 L332.008,31.652 L341.134,31.652 L341.134,33.862 L332.008,33.862 L332.008,39.738 L342.616,39.738 Z M361.996,42 L358.07,36.41 L357.42,36.4490001 C357.229333,36.4576667 357.064667,36.462 356.926,36.462 L352.428,36.462 L352.428,42 L349.828,42 L349.828,23.8 L356.926,23.8 C359.283345,23.8 361.137993,24.3633277 362.49,25.49 C363.842007,26.6166723 364.518,28.1679901 364.518,30.144 C364.518,31.548007 364.171337,32.7439951 363.478,33.732 C362.784663,34.7200049 361.796673,35.4393311 360.514,35.89 L364.83,42 L361.996,42 Z M356.848,34.252 C358.494675,34.252 359.751329,33.8966702 360.618,33.186 C361.484671,32.4753298 361.918,31.4613399 361.918,30.144 C361.918,28.8266601 361.484671,27.8170035 360.618,27.115 C359.751329,26.4129965 358.494675,26.062 356.848,26.062 L352.428,26.062 L352.428,34.252 L356.848,34.252 Z M377.034,42.208 C375.66466,42.208 374.343006,41.9956688 373.069,41.571 C371.794994,41.1463312 370.794004,40.5960034 370.066,39.92 L371.028,37.892 C371.721337,38.5160031 372.609661,39.0229981 373.693,39.413 C374.776339,39.803002 375.889994,39.998 377.034,39.998 C378.542008,39.998 379.668663,39.7423359 380.414,39.231 C381.159337,38.7196641 381.532,38.0393376 381.532,37.19 C381.532,36.5659969 381.328335,36.059002 380.921,35.669 C380.513665,35.2789981 380.011003,34.980001 379.413,34.772 C378.881442,34.5871102 378.154732,34.3816798 377.232853,34.155704 L376.878,34.07 C375.50866,33.740665 374.403671,33.411335 373.563,33.082 C372.722329,32.752665 372.003003,32.2456701 371.405,31.561 C370.806997,30.8763299 370.508,29.9533391 370.508,28.792 C370.508,27.8213285 370.763664,26.9460039 371.275,26.166 C371.786336,25.3859961 372.561995,24.7620023 373.602,24.294 C374.642005,23.8259977 375.933326,23.592 377.476,23.592 C378.550672,23.592 379.607995,23.7306653 380.648,24.008 C381.688005,24.2853347 382.580663,24.6839974 383.326,25.204 L382.468,27.284 C381.70533,26.7986642 380.890671,26.4303346 380.024,26.179 C379.157329,25.9276654 378.308004,25.802 377.476,25.802 C376.002659,25.802 374.89767,26.070664 374.161,26.608 C373.42433,27.145336 373.056,27.8386624 373.056,28.688 C373.056,29.3120031 373.263998,29.8189981 373.68,30.209 C374.096002,30.599002 374.611664,30.9023323 375.227,31.119 C375.842336,31.3356678 376.678661,31.5653321 377.736,31.808 C379.10534,32.137335 380.205996,32.466665 381.038,32.796 C381.870004,33.125335 382.584997,33.6279966 383.183,34.304 C383.781003,34.9800034 384.08,35.8899943 384.08,37.034 C384.08,37.9873381 383.820003,38.8583294 383.3,39.647 C382.779997,40.4356706 381.991339,41.0596644 380.934,41.519 C379.876661,41.9783356 378.576674,42.208 377.034,42.208 Z M390.876,23.8 L393.476,23.8 L393.476,42 L390.876,42 L390.876,23.8 Z M405.55,26.062 L399.31,26.062 L399.31,23.8 L414.364,23.8 L414.364,26.062 L408.124,26.062 L408.124,42 L405.55,42 L405.55,26.062 Z M426.958,35.708 L426.958,42 L424.384,42 L424.384,35.656 L417.156,23.8 L419.938,23.8 L425.762,33.394 L431.612,23.8 L434.186,23.8 L426.958,35.708 Z" id="UNIVERSITY" fill-rule="nonzero"></path>
                        </g>
                    </g>
                    <path d="M76.04,6.4 L76.04,61.14 L76.0342858,63.0314317 C76.024762,64.5838111 76.0033335,66.0766595 75.97,67.51 L75.9312188,68.8797528 C75.8711082,70.7199173 75.7673692,73.039986 75.62,75.84 C75.3399986,80.040021 74.4300077,83.9366487 72.89,87.53 C71.3499923,91.1233513 69.0866816,94.2033205 66.1,96.77 C63.1133184,99.3366795 59.3333562,101.343326 54.76,102.79 C50.1866438,104.236674 44.7733646,104.96 38.52,104.96 C31.986634,104.96 26.38669,104.143341 21.72,102.51 C17.05331,100.876658 13.2033485,98.5433485 10.17,95.51 C7.1366515,92.4766515 4.8733408,88.8133548 3.38,84.52 C1.8866592,80.2266452 1.0466676,75.4666928 0.86,70.24 L0.72,66.04 L25.92,66.04 L26.2,70.24 C26.666669,76.4933646 28.066655,80.7633219 30.4,83.05 C32.733345,85.3366781 35.6733156,86.48 39.22,86.48 C42.7666844,86.48 45.4499909,85.4300105 47.27,83.33 C49.0172087,81.3139899 50.097775,78.4593613 50.5117278,74.7660341 L50.56,74.3 C50.7466676,72.7133254 50.84,71.1500077 50.84,69.61 L50.84,6.4 L76.04,6.4 Z M128.4,4.44 C134.746698,4.44 140.206644,5.2566585 144.78,6.89 C149.353356,8.5233415 153.179985,10.7633191 156.26,13.61 C159.340015,16.4566809 161.696658,19.8166473 163.33,23.69 C164.963341,27.5633527 166.059997,31.7399776 166.62,36.22 L141.42,36.22 C140.859997,32.2066466 139.506677,28.9866788 137.36,26.56 C135.213323,24.1333212 132.040021,22.92 127.84,22.92 C124.946652,22.92 122.613342,23.619993 120.84,25.02 C119.066658,26.420007 118.18,28.6133184 118.18,31.6 C118.18,33.0933408 118.506663,34.4933268 119.16,35.8 C119.813337,37.1066732 120.909992,38.2966613 122.45,39.37 C123.990008,40.4433387 126.066654,41.4699951 128.68,42.45 C131.293346,43.4300049 134.606647,44.386662 138.62,45.32 C149.260053,47.8400126 156.91331,51.6899741 161.58,56.87 C166.24669,62.0500259 168.58,68.373296 168.58,75.84 C168.58,80.6933576 167.506677,84.9399818 165.36,88.58 C163.213323,92.2200182 160.390017,95.2533212 156.89,97.68 C153.389982,100.106679 149.353356,101.926661 144.78,103.14 C140.206644,104.353339 135.493358,104.96 130.64,104.96 C124.479969,104.96 118.880025,104.330006 113.84,103.07 C108.799975,101.809994 104.436685,99.8966795 100.75,97.33 C97.0633149,94.7633205 94.1233443,91.4966865 91.93,87.53 C89.7366557,83.5633135 88.4533352,78.8733604 88.08,73.46 L113.28,73.46 C114.120004,78.0333562 116.149984,81.3466564 119.37,83.4 C122.590016,85.4533436 126.113314,86.48 129.94,86.48 C133.486684,86.48 136.426655,85.6633415 138.76,84.03 C141.093345,82.3966585 142.26,80.2266802 142.26,77.52 C142.26,74.9999874 141.163344,72.6900105 138.97,70.59 C136.843121,68.5536262 132.9391,66.8025072 127.257826,65.3365938 L126.72,65.2 C121.213306,63.799993 116.313355,62.2833415 112.02,60.65 C107.726645,59.0166585 104.086682,56.9866788 101.1,54.56 C98.1133184,52.1333212 95.8266746,49.2400168 94.24,45.88 C92.6533254,42.5199832 91.86,38.4133576 91.86,33.56 C91.86,28.89331 92.8633233,24.7633513 94.87,21.17 C96.8766767,17.5766487 99.5599832,14.5433457 102.92,12.07 C106.280017,9.5966543 110.176644,7.7066732 114.61,6.4 C119.043355,5.0933268 123.639976,4.44 128.4,4.44 Z M269.52,50.5 C275.680031,52.2733422 280.183319,55.1433135 283.03,59.11 C285.876681,63.0766865 287.3,67.9999706 287.3,73.88 C287.3,78.3600224 286.460008,82.3033163 284.78,85.71 C283.099992,89.1166837 280.930013,91.986655 278.27,94.32 C275.609987,96.653345 272.646683,98.4966599 269.38,99.85 C266.113317,101.20334 262.846683,102.066665 259.58,102.44 C257.153321,102.720001 254.936677,102.883333 252.93,102.93 L251.210176,102.962356 C249.528727,102.987452 247.558678,103 245.3,103 L206.8,103 L206.8,6.4 L247.926404,6.40279998 C249.852806,6.41026659 251.45066,6.43266648 252.72,6.47 C254.306675,6.5166669 256.313321,6.6799986 258.74,6.96 C266.766707,7.9866718 272.926645,10.7633107 277.22,15.29 C281.513355,19.8166893 283.66,25.2533016 283.66,31.6 C283.66,36.0800224 282.493345,39.9299839 280.16,43.15 C277.826655,46.3700161 274.280024,48.8199916 269.52,50.5 Z M232,44.48 L243.34,44.48 C245.673345,44.48 247.726658,44.3400014 249.5,44.06 C251.833345,43.6866648 253.723326,42.8466732 255.17,41.54 C256.616674,40.2333268 257.34,38.1333478 257.34,35.24 C257.34,32.5333198 256.66334,30.480007 255.31,29.08 C253.95666,27.679993 252.066679,26.7933352 249.64,26.42 C247.866658,26.1399986 245.766679,26 243.34,26 L232,26 L232,44.48 Z M251.88,83.26 C254.120011,83.0733324 256.196657,82.1166753 258.11,80.39 C260.023343,78.6633247 260.98,76.2133492 260.98,73.04 C260.98,69.773317 260,67.3000084 258.04,65.62 C256.183149,64.0284131 254.033141,63.1069806 251.589919,62.8556787 L251.18,62.82 C250.246662,62.7266662 249.243339,62.68 248.17,62.68 L232,62.68 L232,83.4 L248.87,83.4 C249.943339,83.4 250.946662,83.3533338 251.88,83.26 Z M340.64,92.08 L337.56,99.92 C332.239973,103.280017 326.080035,104.96 319.08,104.96 C315.999985,104.96 313.013348,104.493338 310.12,103.56 C307.226652,102.626662 304.683344,101.226676 302.49,99.36 C300.296656,97.493324 298.52334,95.1833471 297.17,92.43 C295.81666,89.6766529 295.14,86.4800182 295.14,82.84 C295.14,74.8132932 298.686631,68.5133562 305.78,63.94 C312.873369,59.3666438 322.813269,57.08 335.6,57.08 L340.36,57.08 L340.36,53.58 C340.36,52.7399958 340.266668,51.7133394 340.08,50.5 C339.893332,48.633324 339.030008,46.9766739 337.49,45.53 C335.949992,44.0833261 333.82668,43.36 331.12,43.36 C328.133318,43.36 325.823341,44.2466578 324.19,46.02 C322.556658,47.7933422 321.646668,50.313317 321.46,53.58 L297.66,53.72 C297.66,49.3333114 298.593324,45.4366837 300.46,42.03 C302.326676,38.6233163 304.823318,35.753345 307.95,33.42 C311.076682,31.086655 314.716646,29.3133394 318.87,28.1 C323.023354,26.8866606 327.479976,26.28 332.24,26.28 C338.120029,26.28 343.08998,26.8866606 347.15,28.1 C351.21002,29.3133394 354.52332,31.0166557 357.09,33.21 C359.656679,35.4033443 361.569994,37.9699853 362.83,40.91 C364.090006,43.8500147 364.859999,46.9999832 365.14,50.36 C365.420001,54.093352 365.56,58.3399762 365.56,63.1 L365.56,84.1 C365.56,86.900014 365.653332,89.699986 365.84,92.5 C366.026668,95.300014 366.399997,98.799979 366.96,103 L342.32,103 L340.64,92.08 Z M329.44,87.88 C330.746673,87.88 332.029994,87.646669 333.29,87.18 C334.550006,86.713331 335.716661,85.9900049 336.79,85.01 C337.863339,84.0299951 338.726663,82.8166739 339.38,81.37 C340.033337,79.9233261 340.36,78.2200098 340.36,76.26 L340.36,71.36 C334.666638,70.893331 330.000018,71.4299923 326.36,72.97 C322.719982,74.5100077 320.9,77.146648 320.9,80.88 C320.9,83.1200112 321.693325,84.8466606 323.28,86.06 C324.866675,87.2733394 326.919987,87.88 329.44,87.88 Z M549.38,0.1 L549.38,103 L524.18,103 L524.18,92.08 L518.58,100.34 C516.433323,101.926675 513.680017,103.09333 510.32,103.84 C506.959983,104.58667 503.366686,104.96 499.54,104.96 C494.499975,104.96 489.95002,104.026676 485.89,102.16 C481.82998,100.293324 478.376681,97.7033499 475.53,94.39 C472.683319,91.0766501 470.490008,87.1100231 468.95,82.49 C467.409992,77.8699769 466.64,72.8066942 466.64,67.3 C466.64,60.6733002 467.596657,54.793359 469.51,49.66 C471.423343,44.526641 473.989984,40.2333506 477.21,36.78 C480.430016,33.3266494 484.186645,30.7133422 488.48,28.94 C492.773355,27.1666578 497.299976,26.28 502.06,26.28 C505.140015,26.28 508.313317,26.6066634 511.58,27.26 C514.846683,27.9133366 517.413324,28.7999944 519.28,29.92 L524.18,37.9 L524.18,0.1 L549.38,0.1 Z M429.4,26.28 C437.146705,26.28 443.236644,28.0299825 447.67,31.53 C452.103355,35.0300175 454.833328,40.046634 455.86,46.58 C456.140001,48.446676 456.326666,50.5233219 456.42,52.81 L456.462778,53.9825029 C456.527593,55.9852816 456.56,58.2310987 456.56,60.72 L456.56,103 L431.36,103 L431.36,60.3 C431.36,58.7444367 431.295186,57.1888928 431.165556,55.6333359 L431.08,54.7 C430.799999,51.1533156 429.68,48.3766767 427.72,46.37 C425.75999,44.3633233 422.866686,43.36 419.04,43.36 C415.11998,43.36 411.946679,45.2966473 409.52,49.17 C407.093321,53.0433527 405.88,59.2266242 405.88,67.72 L405.88,103 L380.68,103 L380.68,28.24 L405.88,28.24 L405.88,39.86 L412.6,30.62 C414.933345,29.219993 417.45332,28.1466704 420.16,27.4 C422.86668,26.6533296 425.946649,26.28 429.4,26.28 Z M508.92,43.36 C503.973309,43.36 499.983348,45.226648 496.95,48.96 C493.916651,52.693352 492.4,58.3866284 492.4,66.04 C492.4,73.040035 493.916651,78.4299811 496.95,82.21 C499.983348,85.9900189 503.739978,87.88 508.22,87.88 C512.88669,87.88 516.713318,86.2933492 519.7,83.12 C522.686682,79.9466508 524.18,74.4400392 524.18,66.6 L524.18,66.6 L524.18,63.38 C524.18,59.646648 523.736671,56.4966795 522.85,53.93 C521.963329,51.3633205 520.796674,49.3100077 519.35,47.77 C517.903326,46.2299923 516.270009,45.1100035 514.45,44.41 C512.629991,43.7099965 510.786676,43.36 508.92,43.36 Z" id="JSBand" fill-rule="nonzero"></path>
                </g>
            </g>
        </g>
    </g>
</svg>